#!OML:ASF I:\Actors\actors\Patient Classification 1\Patient 1\Session 1\Subject1.ASF
:FULLY-SPECIFIED
:DEGREES
1272
root -0.187747 17.7589 7.71201 20.2898 3.62892 -12.9201
lowerback 17.0286 1.80738 2.58046
upperback 8.7888 2.72448 0.95025
thorax -0.0873256 1.4034 -0.907871
lowerneck -3.23117 -4.45512 -1.02899
upperneck -4.53587 -5.62976 14.2935
head -0.39473 -2.92211 4.87188
rclavicle 7.95139e-016 -3.89618e-014
rhumerus -78.0259 50.3369 -94.164
rradius 120.921
rwrist -37.7209
rhand 254.348 453.026
rfingers 7.12502
rthumb 71.5079 -6.76894
lclavicle 7.95139e-016 -3.89618e-014
lhumerus 40.2174 -64.831 -29.2714
lradius 95.2207
lwrist 82.068
lhand -10.8013 5.80322
lfingers 7.12502
lthumb 15.2119 -324.776
rfemur -22.9616 16.7283 25.9324
rtibia 8.22972
rfoot -10.0844 -21.9035
rtoes 2.70187
lfemur -205.243 239.908 -158.876
ltibia -2.68265
lfoot 123.545 -115.335
ltoes 27.1978
1273
root -0.184982 17.7603 7.70168 20.2048 3.68015 -12.6754
lowerback 17.023 1.6441 2.49746
upperback 8.77047 2.50664 1.13852
thorax -0.124461 1.28831 -0.628923
lowerneck -3.31127 -4.39281 -1.05273
upperneck -4.51842 -5.5514 14.1759
head -0.384618 -2.8779 4.83229
rclavicle -2.70347e-014 3.02153e-014
rhumerus -78.0564 50.4397 -93.9477
rradius 121
rwrist -37.988
rhand 254.48 453.122
rfingers 7.12502
rthumb 71.4314 -6.35115
lclavicle -2.70347e-014 3.02153e-014
lhumerus 42.7232 -64.3071 -30.795
lradius 92.7258
lwrist 80.7879
lhand -10.5036 5.28091
lfingers 7.12502
lthumb 15.4986 -325.32
rfemur -23.0042 16.5211 25.6583
rtibia 8.41903
rfoot -10.1727 -21.8005
rtoes 2.82181
lfemur -205.382 240.152 -159.047
ltibia -2.61591
lfoot 123.211 -115.371
ltoes 27.4109
1274
root -0.181261 17.7604 7.69176 20.1614 3.74873 -12.4763
lowerback 16.9342 1.48497 2.48707
upperback 8.77084 2.30246 1.37478
thorax -0.0944395 1.18214 -0.33942
lowerneck -3.32263 -4.35036 -0.960259
upperneck -4.68182 -5.48308 13.9019
head -0.453455 -2.85037 4.71795
rclavicle 0 -2.46493e-014
rhumerus -78.167 50.4482 -93.837
rradius 121.069
rwrist -38.1669
rhand 254.527 453.291
rfingers 7.12502
rthumb 71.4043 -6.0701
lclavicle 0 -2.46493e-014
lhumerus 45.4592 -63.6454 -32.2009
lradius 89.904
lwrist 79.3108
lhand -10.3997 5.55826
lfingers 7.12502
lthumb 15.5987 -325.051
rfemur -23.0777 16.3531 25.4205
rtibia 8.55994
rfoot -10.1757 -21.7476
rtoes 2.65628
lfemur -205.654 240.541 -158.988
ltibia -2.57592
lfoot 122.504 -115.335
ltoes 27.7253
1275
root -0.178901 17.7577 7.6838 20.1308 3.81798 -12.5187
lowerback 16.7691 1.32889 2.80038
upperback 8.75974 2.14411 1.58942
thorax -0.0193756 1.10963 -0.260265
lowerneck -3.46479 -4.35187 -0.888806
upperneck -4.6326 -5.49713 13.9066
head -0.412968 -2.85153 4.70029
rclavicle 4.77083e-015 7.95139e-015
rhumerus -78.3814 50.2419 -93.9704
rradius 121.093
rwrist -38.2977
rhand 257.105 459.804
rfingers 7.12502
rthumb 69.7971 6.1751
lclavicle 4.77083e-015 7.95139e-015
lhumerus 48.5826 -62.9051 -33.786
lradius 86.7472
lwrist 77.2141
lhand -10.5369 6.12108
lfingers 7.12502
lthumb 15.4665 -324.478
rfemur -23.104 16.2723 25.4812
rtibia 8.61287
rfoot -10.1108 -21.7143
rtoes 2.28454
lfemur -205.751 240.724 -158.805
ltibia -2.60894
lfoot 122.124 -115.275
ltoes 27.8627
1276
root -0.177378 17.7552 7.67552 20.1207 3.79506 -12.4682
lowerback 16.5831 1.2106 3.06403
upperback 8.72694 2.02421 1.72525
thorax 0.0453134 1.05623 -0.242502
lowerneck -3.54506 -4.36552 -1.03862
upperneck -4.61301 -5.51319 14.1236
head -0.379013 -2.85496 4.80646
rclavicle 3.02153e-014 -4.77083e-015
rhumerus -78.5196 49.949 -94.1442
rradius 121.029
rwrist -38.3643
rhand 257.736 459.93
rfingers 7.12502
rthumb 69.3745 7.56255
lclavicle 3.02153e-014 -4.77083e-015
lhumerus 52.0797 -62.1356 -35.4998
lradius 83.3795
lwrist 74.7514
lhand -11.6185 6.73572
lfingers 7.12502
lthumb 14.4246 -323.786
rfemur -23.1351 16.2626 25.4151
rtibia 8.64469
rfoot -10.0692 -21.7333
rtoes 2.05278
lfemur -205.779 240.767 -158.835
ltibia -2.62807
lfoot 121.908 -115.302
ltoes 27.9281
1277
root -0.175525 17.7544 7.6676 20.114 3.68684 -12.2007
lowerback 16.4398 1.12443 3.1159
upperback 8.68419 1.91742 1.83964
thorax 0.0695838 1.00254 -0.132228
lowerneck -3.63453 -4.35757 -1.13701
upperneck -4.46693 -5.51633 14.2856
head -0.306598 -2.84589 4.8802
rclavicle -4.77083e-015 -5.24792e-014
rhumerus -78.5631 49.7097 -94.1577
rradius 121.038
rwrist -38.5795
rhand 255.322 453.426
rfingers 7.12502
rthumb 70.9304 -4.06207
lclavicle -4.77083e-015 -5.24792e-014
lhumerus 55.4685 -61.3841 -36.6869
lradius 79.8604
lwrist 72.4847
lhand -13.3973 7.78941
lfingers 7.12502
lthumb 12.7102 -322.617
rfemur -23.1797 16.3476 25.0558
rtibia 8.71462
rfoot -10.1616 -21.8574
rtoes 2.43788
lfemur -205.805 240.863 -159.131
ltibia -2.62677
lfoot 121.645 -115.342
ltoes 28.055
1278
root -0.172214 17.754 7.65981 20.1305 3.50564 -11.9179
lowerback 16.2699 1.07516 3.15787
upperback 8.6556 1.85543 1.98991
thorax 0.122697 0.97019 0.0147319
lowerneck -3.44682 -4.35301 -0.816078
upperneck -4.79204 -5.47939 14.0116
head -0.468446 -2.85259 4.72897
rclavicle -1.03368e-014 -3.57812e-015
rhumerus -78.4942 49.4937 -93.9682
rradius 121.187
rwrist -38.8555
rhand 257.173 460.311
rfingers 7.12502
rthumb 69.7518 6.82152
lclavicle -1.03368e-014 -3.57812e-015
lhumerus 58.4909 -60.6414 -37.0204
lradius 76.1834
lwrist 70.9071
lhand -15.3609 9.41502
lfingers 7.12502
lthumb 10.8166 -320.884
rfemur -23.265 16.4565 24.6553
rtibia 8.84571
rfoot -10.3336 -21.9173
rtoes 3.1457
lfemur -205.874 241.089 -159.374
ltibia -2.63114
lfoot 121.064 -115.229
ltoes 28.1802
1279
root -0.165879 17.7554 7.65026 20.1767 3.28712 -11.6109
lowerback 16.1018 1.02598 3.1789
upperback 8.6148 1.79115 2.16502
thorax 0.160621 0.935102 0.199216
lowerneck -3.40161 -4.30163 -1.04485
upperneck -4.7557 -5.40217 14.2178
head -0.45753 -2.81122 4.85224
rclavicle 3.69739e-014 3.53837e-014
rhumerus -78.3495 49.4262 -93.7674
rradius 121.269
rwrist -38.8617
rhand 257.754 462.6
rfingers 7.12502
rthumb 69.3624 10.2673
lclavicle 3.69739e-014 3.53837e-014
lhumerus 60.963 -59.9886 -36.4027
lradius 72.3587
lwrist 69.9433
lhand -17.3631 11.334
lfingers 7.12502
lthumb 8.885 -318.873
rfemur -23.3923 16.4629 24.2216
rtibia 8.93136
rfoot -10.3424 -21.8917
rtoes 3.13741
lfemur -205.985 241.228 -159.653
ltibia -2.57138
lfoot 120.451 -115.28
ltoes 28.5351
1280
root -0.154355 17.7539 7.63552 20.0679 3.23831 -11.656
lowerback 16.134 0.882262 3.65803
upperback 8.57268 1.67667 2.45171
thorax 0.105704 0.885617 0.247004
lowerneck -3.38154 -4.28804 -1.19669
upperneck -4.6464 -5.38907 14.3582
head -0.417412 -2.79871 4.93285
rclavicle -1.98785e-015 -1.19271e-015
rhumerus -78.2252 49.6686 -93.5918
rradius 121.343
rwrist -38.9761
rhand 257.13 460.065
rfingers 7.12502
rthumb 69.7803 6.4882
lclavicle -1.98785e-015 -1.19271e-015
lhumerus 62.74 -59.4959 -34.7094
lradius 68.3318
lwrist 68.88
lhand -19.1013 13.0367
lfingers 7.12502
lthumb 7.20736 -317.106
rfemur -23.3148 16.3932 24.2836
rtibia 8.92363
rfoot -10.3133 -21.8355
rtoes 3.01877
lfemur -205.36 240.497 -160.382
ltibia -2.60335
lfoot 122.378 -115.553
ltoes 28.2459
